<?xml version="1.0" encoding="utf-8"?>
<!-- Generator: Adobe Illustrator 26.4.1, SVG Export Plug-In . SVG Version: 6.00 Build 0)  -->
<svg version="1.1" id="Capa_1" xmlns="http://www.w3.org/2000/svg" xmlns:xlink="http://www.w3.org/1999/xlink" x="0px" y="0px"
	 viewBox="0 0 298 298" style="enable-background:new 0 0 298 298;" xml:space="preserve">
<style type="text/css">
	.st0{fill:#FCECAE;}
</style>
<g>
	<path class="st0" d="M289.5,140.5h-24.6l11-11c2.9-2.9,2.9-7.7,0-10.6c-2.9-2.9-7.7-2.9-10.6,0l-21.6,21.6h-36.4l16.2-17.4
		c2.8-3,2.6-7.8-0.4-10.6c-1.2-1.2-2.8-1.8-4.3-2c-1,0-21.5,0-21.5,0l24-24h30.2c4.1,0,7.5-3.4,7.5-7.5s-3.4-7.5-7.5-7.5h-15.2
		L254,53.8c2.9-2.9,2.9-7.7,0-10.6c-2.9-2.9-7.8-2.9-10.8,0l-18.1,17.9V45.5c0-4.1-3.4-7.5-7.5-7.5s-7.5,3.4-7.5,7.5v30.6l-24.8,25
		l-0.4-22.6c0,0,0-0.1,0-0.1c0-1.8-0.7-3.6-2.1-5.1c-2.9-3-7.8-3.1-10.8-0.2l-16,15.2V53.1l21.5-21.3c2.9-2.9,3-7.7,0.1-10.6
		c-2.9-2.9-7.8-2.9-10.7,0l-10.8,10.7V7.5c0-4.1-3.4-7.5-7.5-7.5s-7.5,3.4-7.5,7.5v24.4l-10.5-10.7c-2.9-2.9-7.6-2.9-10.5,0
		c-2.9,2.9-3.1,7.7-0.1,10.6l21.2,21.3v35.4L125,73.1c-3-2.8-7.7-2.7-10.5,0.3c-1.1,1.1-1.7,2.5-1.9,4c-0.1,0.6-0.2,1.2-0.2,1.8
		l-0.1,21.2L87.2,75.4V45.5c0-4.1-3.4-7.5-7.5-7.5s-7.5,3.4-7.5,7.5v14.9l-17-17.2c-2.9-2.9-7.6-2.9-10.5,0c-2.9,2.9-2.9,7.7,0,10.6
		l17.7,17.7H46.5c-4.1,0-7.5,3.4-7.5,7.5s3.4,7.5,7.5,7.5h30.9l24.7,24.7l-23.1,0.8c-4,0.1-7.5,3.4-7.6,7.4c0,0.1-0.3,0.2-0.3,0.3
		c0,0,0,0,0,0c0,0,0.3,0,0.3,0c0,1.9,1,3.7,2.4,5.2l15.8,15.5H55l-21.6-21.6c-2.9-2.9-7.7-2.9-10.6,0c-2.9,2.9-2.9,7.7,0,10.6l11,11
		H8.5c-4.1,0-7.5,3.4-7.5,7.5s3.4,7.5,7.5,7.5h25l-10.7,10.7c-2.9,2.9-2.9,7.7,0,10.6c1.5,1.5,3.4,2.2,5.3,2.2s3.8-0.7,5.3-2.2
		l21.3-21.3h35l-15.3,16.4c-2.8,3-2.7,7.8,0.4,10.6c1.4,1.3,3.3,2,5.1,2c0,0,0.1,0,0.1,0c0,0,0,0,0.1,0c0,0,0,0,0.1,0l22-0.1
		l-25.1,25.1H46.5c-4.1,0-7.5,3.4-7.5,7.5s3.4,7.5,7.5,7.5h15.6l-17.4,17.4c-2.9,2.9-2.9,7.7,0,10.6c1.5,1.5,3.4,2.2,5.3,2.2
		c1.9,0,3.7-0.7,5.1-2.2l17-17.2v15.2c0,4.1,3.4,7.5,7.5,7.5s7.5-3.4,7.5-7.5v-30.2l25.4-25.3l1,24.4c0.1,4,3.5,7.3,7.5,7.2
		c1.4,0,2.8-0.5,4.3-1.5c1.1-0.8,15.7-15.8,15.7-15.8v35.4l-21,21.1c-2.9,2.9-2.8,7.7,0.1,10.6c1.5,1.5,3.4,2.2,5.3,2.2
		c1.9,0,3.7-0.7,5.2-2.2l10.4-10.5v24.6c0,4.1,3.4,7.5,7.5,7.5s7.5-3.4,7.5-7.5v-25.3l11.4,11.2c1.5,1.5,3.5,2.2,5.4,2.2
		c1.9,0,3.9-0.7,5.3-2.2c2.9-2.9,2.8-7.7-0.1-10.6l-22-21.8v-35.7c0,0,13.7,12.9,15.9,15c2.2,2.1,3.9,3.2,6.5,3.2c0,0,0,0,0,0
		c4.1,0,7.5-3.6,7.5-7.7l-0.3-23.7l24.4,24.6v30.9c0,4.1,3.4,7.5,7.5,7.5s7.5-3.4,7.5-7.5v-15.9l18.1,17.9c1.5,1.5,3.5,2.2,5.4,2.2
		c1.9,0,3.9-0.7,5.3-2.2c2.9-2.9,2.9-7.7,0-10.6l-17.4-17.4h14.9c4.1,0,7.5-3.4,7.5-7.5s-3.4-7.5-7.5-7.5h-29.9l-25.7-25.7l23.1-0.8
		c0.1,0,0.2,0,0.2,0c0,0,0.1,0,0.1,0c4-0.3,7-3.7,6.9-7.7c-0.1-2.4-1.3-4.5-3.2-5.8l-13.9-13.8H244l21.3,21.3
		c1.5,1.5,3.4,2.2,5.3,2.2c1.9,0,3.8-0.7,5.3-2.2c2.9-2.9,2.9-7.7,0-10.6l-10.7-10.7h24.3c4.1,0,7.5-3.4,7.5-7.5
		S293.6,140.5,289.5,140.5z M200.8,125.5l-14,15h-19.5l15-15L200.8,125.5z M170.2,95.8l0.4,20l-14.4,14.3v-20.9L170.2,95.8z
		 M127.3,95.9l13.9,13.3v20.2l-13.9-14L127.3,95.9z M96.9,126.4l19.8-0.7l14.8,14.8h-20.3L96.9,126.4z M97.2,169.5l13-14h20.9
		l-13.8,13.8L97.2,169.5z M127.9,201.6l-0.9-21l14.2-14.2v21.6L127.9,201.6z M170.8,201.3l-14.7-13.5v-22.2l14.4,14.4L170.8,201.3z
		 M201,168.6l-19.6,0.7l-13.8-13.8h20.3L201,168.6z"/>
</g>
</svg>
