<?xml version="1.0" encoding="utf-8"?>
<!-- Generator: Adobe Illustrator 26.2.1, SVG Export Plug-In . SVG Version: 6.00 Build 0)  -->
<svg version="1.1" id="Vrstva_1" xmlns="http://www.w3.org/2000/svg" xmlns:xlink="http://www.w3.org/1999/xlink" x="0px" y="0px"
	 viewBox="0 0 600 600" style="enable-background:new 0 0 600 600;" xml:space="preserve">
<g>
	<path d="M301.5,594.3c-2.8-0.7-5.7-1-8.2-2.2c-8.6-3.8-13.7-10.5-14.9-20c-0.8-6,0.7-11.5,3.9-16.6c0.2-0.4,0.3-0.9,0.6-1.4
		c-1.6,0.5-2.9,1-4.2,1.2c-3.4,0.5-6-1.2-8.2-3.7c-2.5-2.9-4.2-6.2-5.4-9.8c-1.3-4-2.2-8.2-3.4-12.3c-1.7-5.9-4.7-11-9-15.4
		c-0.3-0.3-0.7-0.7-1.1-0.8c-2.3-0.7-4.7-1.2-7.3-1.7c3.8,7.4,6.2,15.2,7.2,23.5c2.2,0.4,4,1.5,4.7,3.8c0.6,2.1-0.4,4.5-2.5,5.6
		c-2.1,1.1-4.4,0.6-6.1-1.3c-1.4-1.7-1.5-4.2-0.2-5.8c0.6-0.7,1.4-1.5,2.3-1.8c1.1-0.4,1.2-1,1.1-1.8c-0.8-5.5-2.2-11-4.4-16.1
		c-0.9-2-1.9-3.9-2.9-5.8c-0.4-0.6-1.2-0.9-1.8-1.3c-0.1,0.1-0.2,0.2-0.3,0.4c0.5,2.3,1.1,4.5,1.4,6.8c0.7,4.8,0.5,9.6-0.5,14.4
		c-0.2,0.8-0.1,1.4,0.7,1.9c2.1,1.5,2.7,4.1,1.5,6.3c-1.2,2.1-3.6,3.1-5.8,2.3c-2.6-0.9-3.8-3.2-3.3-5.9c0.1-0.4,0.2-0.8,0-1.4
		c-0.4,0.3-0.7,0.6-1.1,0.8c-1.7,1.4-4.2,1.5-5.9,0.3c-1.8-1.3-2.6-3.5-2-5.6c0.6-2,2.6-3.5,4.8-3.3c1.3,0.1,1.8-0.3,2.3-1.4
		c2.1-5,3.7-10.1,3.7-15.6c0-1.2-0.4-1.5-1.4-1.9c-3.2-1-6.3-2.2-9.5-3.3c-0.5-0.2-1-0.3-1.7-0.4c0.5,9.2-3.6,16.2-9.4,22.7
		c-0.9-1.5-1.7-2.8-2.6-4.3c-0.4,2.6-0.7,4.9-1.3,7.1c-0.6,2.3-2,4.3-4.1,5.7c-1.4-2-2.8-3.9-4.4-6.2c-1.2,4.3-2.9,7.9-5.4,11.1
		c-1.5-2.3-2.8-4.4-4.3-6.7c-2.4,4.3-4.6,8.3-6.9,12.5c-1.1-2-1.9-3.7-2.8-5.4c-1-2-1-2-2.3-0.2c-2.3,3.1-4.6,6.2-7.1,9.5
		c-0.6-2.2-1.2-4.2-1.8-6.5c-1.7,1.7-2.2,3.7-2.9,5.5c-0.7,1.8-1.2,3.7-1.9,5.9c-2.1-4.1-2.1-8.1-2.6-12.4c-1.3,0.7-2.5,1.3-3.7,1.8
		c0-3.7,0-7.5,0-11.6c-1.8,0.8-3.6,1.6-5.6,2.5c-0.6-5.9,0.7-11.5,1.9-17.3c-1.7,0.4-3.2,0.8-4.9,1.2c0.9-5,3.9-8.5,6.5-12.5
		c-2.1,0.4-4.2,0.8-6.6,1.3c0.6-1.5,1.2-2.9,1.8-4.4c-5.8-0.6-10.9,0.7-15.4,5c-0.2-1.6-0.3-3-0.5-4.5c-4,0-7.1,2.7-10.7,4.8
		c0-1.8,0-3.4,0-5.2c-4.8,0.6-8.8,2.7-12.9,5c-0.2-1.5-0.3-2.9-0.5-4.6c-2.6,1.8-5,3.5-7.8,5.5c0.1-2.1,0.2-3.9,0.3-5.7
		c-0.1-0.1-0.2-0.2-0.4-0.3c-2.5,2.1-5,4.3-7.6,6.6c0-4.2,0-8.3,0-12.7c-0.9,0.5-1.7,0.9-2.5,1.4c-0.1-4.8,0.9-9.3,2.1-14
		c-1.5,0.7-3,1.4-4.8,2.2c1-6.2,4.2-11.1,7.8-16.4c-1.8,0.3-3.1,0.6-4.5,0.8c-0.1-0.1-0.2-0.3-0.4-0.4c1.8-2.4,3.6-4.7,5.6-7.4
		c-3.3-0.2-6.3-0.5-9.5-0.7c0.4-0.6,0.7-1.2,1.2-2c-3.7-0.2-7.3-0.4-11-0.7c0.6-1.4,1.1-2.7,1.6-4c-3.9-0.9-7.6-1.7-11.3-2.5
		c0.3-0.8,0.6-1.5,0.8-2.2c-2.7-0.9-5.2-1.7-7.8-2.5c0.5-1,0.9-1.9,1.4-2.8c-3.1-0.6-6-1.3-9.1-1.9c0.3-1.2,0.5-2.3,0.7-3.3
		c-3.4,0-6.7,0-10,0c-0.1-0.2-0.1-0.3-0.2-0.5c0.9-1.1,1.7-2.3,2.7-3.3c1.5-1.6,3.2-3.1,4.8-4.6c1.5-1.4,1.6-1.4-0.5-2.7
		c1.1-1.1,2-2.2,3.1-3.2c1.2-1.1,2.5-2.1,3.9-3.1c1.9-1.5,1.9-1.5-0.3-3.2c1.2-0.9,2.3-1.8,3.6-2.6c1.3-0.8,2.7-1.5,4.1-2.2
		c1.6-0.8,1.6-1,0.4-2.3c-0.2-0.2-0.3-0.4-0.7-0.7c1.7-0.7,3.2-1.4,4.7-2c1.5-0.6,3.1-1.1,4.9-1.7c-0.4-0.7-0.8-1.4-1.3-2.2
		c2.9-1.6,6.2-1.9,9.8-2c-0.5-1.7-1-3.2-1.5-4.8c1-0.2,2-0.3,3.1-0.5c-0.1-0.2-0.1-0.5-0.2-0.5c-2.3-0.4-4.5-0.8-6.8-1
		c-0.3,0-0.8,0.8-1,1.3c-0.7,2.1-2.5,3.6-4.6,3.8c-2.4,0.2-4.4-0.9-5.5-3c-1.4-2.8-0.1-6.2,2.8-7.4c2.8-1.1,6.2,0.4,7.1,3.3
		c0.2,0.5,0.3,1,0.5,1.6c6-0.9,10.9,2.8,16.4,3.9c0.9-2.1,0.7-4-1-5.4c-2.9-2.4-5.9-4.7-8.9-7c-0.7-0.5-1.1-0.6-1.8,0.2
		c-1.8,2-4.5,2.5-6.6,1.4c-2.1-1.1-3.3-3.5-2.9-5.7c0.4-2.4,2.6-4.5,5.1-4.6c3-0.1,6.5,2.5,5.6,6.8c0,0.2-0.1,0.5-0.1,0.4
		c3.7,3.1,7.2,6,10.8,8.9c0.6,0.5,1.5,0.5,2.2,0.9c1.5,0.8,3,1.7,4.7,2.5c-1.2-3.8-3.3-7.2-4.7-10.7c-1.6,0-3.1,0.3-4.5-0.1
		c-2.1-0.5-3.3-2.1-3.6-4.2c-0.4-2.2,0.4-4.2,2.3-5.3c1.2-0.7,1.1-1.4,0.7-2.4c-3.7-9.3-6.8-18.9-9-28.7c-1.6-6.8-2.8-13.7-3.9-20.6
		c-0.9-6.2-1.4-12.5-1.9-18.7c-0.4-4.9-0.6-9.8-0.6-14.7c0-4.8,0.2-9.6,0.6-14.4c0.8-9.4,2-18.7,3.9-27.9c2.7-13.6,6.8-26.9,12-39.7
		c3.8-9.4,8.3-18.4,13.3-27.1c6-10.5,12.9-20.3,20.5-29.7c6.4-8,13.5-15.4,20.9-22.3c7.6-7.1,15.8-13.6,24.3-19.6
		c10.6-7.4,21.8-13.8,33.5-19.3c13.6-6.4,27.9-11.2,42.5-14.8c0.3-0.1,0.7-0.1,1.1-0.1c0.9-0.2,1.5-0.5,1.7-1.7
		c1.1-4.7,2.4-9.3,3.6-13.9c7.9,1,13.4,5.1,17.9,11.5c0.3-2.5,0.6-4.5,0.9-6.5c1.3-10.2,3.7-20.1,7.4-29.7c3.1-8,7-15.7,12.5-22.3
		c2.9-3.6,6.3-6.9,9.6-10.6c1.5,3,2.7,5.7,4,8.2c3.6,7.2,7.5,14.3,10.9,21.5c2.6,5.6,4.1,11.7,4.5,17.9c0.2,3.3,0.2,6.7,0.3,10
		c0,1.3,0,2.7,0,4.5c5.8-4,8.7-9.5,10.7-15.8c3.3,5.3,6.2,10.6,8.1,16.4c0.8,2.4,1.6,4.8,2.1,7.2c0.3,1.6,1,2,2.4,2.3
		c8.5,2.3,17.1,4.5,25.5,7.1c8.8,2.7,17.4,6.3,25.6,10.6c6.8,3.5,13.6,7,20,11.1c6.9,4.3,13.4,9.2,19.9,14.1
		c8.7,6.5,16.6,13.9,23.9,21.8c4.9,5.3,9.5,10.9,14.1,16.5c6.2,7.5,11.5,15.6,16.4,23.9c5.1,8.7,9.6,17.8,13.5,27.2
		c4.9,11.6,8.6,23.5,11.5,35.8c1.4,5.9,2.4,11.9,3.2,17.8c0.9,6.3,1.4,12.6,1.9,18.9c0.4,4.8,0.6,9.6,0.6,14.4
		c-0.1,6.1-0.4,12.3-0.9,18.4c-1.1,12.5-3.1,24.8-6.5,36.9c-2.3,8.1-5.1,15.9-7.8,23.9c-0.4,1.3-0.6,2.1,0.8,3
		c2.1,1.3,2.7,4.4,1.6,6.6c-1.2,2.3-3.9,3.6-6.3,2.8c-0.3-0.1-0.7-0.2-1.1-0.3c-1.8,3.7-3.6,7.5-5.5,11.2c0.1,0.1,0.2,0.2,0.3,0.3
		c0.9-0.6,1.8-1.2,2.7-1.8c1.1-0.6,2.3-1.1,3.4-1.7c0.7-0.4,1.4-1,2.1-1.5c3.2-2.6,6.4-5.1,9.7-7.8c-0.7-3.8,0.7-6.3,4.1-7.2
		c2.9-0.7,5.9,1.3,6.5,4.4c0.5,2.7-1.6,5.7-4.4,6.1c-2,0.3-3.8-0.2-5.1-1.8c-0.6-0.7-1-0.8-1.8-0.2c-2.9,2.3-5.8,4.4-8.6,6.8
		c-1.9,1.6-2.2,3.1-1.3,5.8c2.1-0.7,4.1-1.3,6.2-2c1.6-0.6,3.2-1.3,4.9-1.7c1.7-0.4,3.5-0.4,5.3-0.5c0.5-1.8,1.3-3.7,3.3-4.5
		c1-0.4,2.2-0.6,3.3-0.4c2.8,0.5,4.4,2.8,4.3,5.7c-0.1,2.3-2,4.6-4.3,5c-3.1,0.5-5.1-1-6.7-5c-2.5-0.4-6.5,0.3-7.6,1.4
		c1.1,0.2,2.1,0.4,3.3,0.5c-0.3,0.8-0.7,1.5-0.9,2.3c-0.2,0.8-0.4,1.6-0.6,2.5c3.5,0,6.7,0.4,9.7,1.9c-0.5,0.7-0.9,1.4-1.3,2.1
		c3.2,1.2,6.3,2.4,9.4,3.6c-0.1,0.4,0,0.5-0.1,0.5c-1.7,1.8-1.6,1.8,0.6,3c2.4,1.3,4.7,2.8,7.2,4.3c-2.3,2-2.2,2-0.2,3.6
		c2.3,1.8,4.5,3.8,6.9,5.8c-0.9,0.7-1.5,1.1-1.9,1.4c2.8,2.9,5.5,5.8,8.2,8.6c0.2,0.2,0.3,0.5,0.6,1.2c-3.5,0-6.8,0-10.2,0
		c0.1,0.5,0.3,1.2,0.5,1.9c0.3,0.9,0.3,1.5-0.9,1.7c-2.6,0.4-5.2,1.1-7.9,1.7c0.4,0.9,0.8,1.7,1.3,2.8c-2.6,0.9-5.1,1.7-7.8,2.6
		c0.2,0.6,0.5,1.2,0.8,2.1c-3.7,0.8-7.4,1.7-11.3,2.5c0.5,1.2,1,2.5,1.6,4c-3.6,0.2-7.2,0.4-11,0.7c0.4,0.7,0.8,1.3,1.2,1.9
		c-3.2,0.2-6.3,0.5-9.6,0.7c2,2.6,3.8,5,5.6,7.3c-0.1,0.2-0.2,0.3-0.3,0.5c-1.3-0.2-2.7-0.5-4.5-0.8c3.5,5.2,6.7,10.2,7.8,16.4
		c-1.7-0.8-3.2-1.6-4.8-2.3c0.9,4.7,1.7,9.3,2.5,13.8c-0.2,0.1-0.3,0.1-0.5,0.2c-0.7-0.4-1.5-0.8-2.3-1.2c0,4.2,0,8.3,0,12.7
		c-2.7-2.3-5.2-4.5-7.7-6.6c-0.1,0.1-0.3,0.2-0.4,0.3c0.1,1.8,0.2,3.6,0.4,5.8c-2.7-1.9-5.1-3.6-7.7-5.5c-0.2,1.6-0.3,3-0.5,4.6
		c-4.1-2.1-8-4.3-12.8-4.9c0,1.7,0,3.3,0,5.2c-3.6-2.1-6.8-4.7-10.9-4.8c-0.1,1.5-0.3,2.9-0.4,4.6c-4.5-4.3-9.6-5.5-15.5-5
		c0.7,1.6,1.2,2.9,1.9,4.5c-2.4-0.5-4.5-0.9-7.1-1.4c3,4.1,6,7.6,6.9,12.6c-1.7-0.4-3.1-0.8-4.9-1.2c1.2,5.8,2.5,11.3,1.9,17.3
		c-1.9-0.8-3.7-1.6-5.6-2.4c0,4.1,0,7.9,0,11.6c-1.1-0.6-2.3-1.2-3.7-1.9c-0.5,4.3-0.6,8.4-2.6,12.5c-0.7-2.3-1.3-4.2-1.9-6
		c-0.6-1.8-1.2-3.6-2.8-5.5c-0.7,2.4-1.2,4.3-1.8,6.5c-1.8-2.4-3.5-4.6-5.2-6.8c-0.8-1-1.6-2-2.3-3.1c-0.7-1-1.1-1-1.7,0.1
		c-0.9,1.9-1.9,3.8-3.1,6.1c-2.3-4.2-4.5-8.1-6.8-12.3c-1.9,1.7-3,4-4.4,6.7c-1.1-1.9-2.3-3.5-3.2-5.3c-0.9-1.8-1.5-3.7-2.4-5.8
		c-1.4,2-2.8,3.9-4.3,6c-4.3-3.2-5.2-7.7-5-12.6c-0.1,0-0.3-0.1-0.4-0.1c-0.8,1.4-1.6,2.7-2.5,4.2c-5.8-6.5-9.9-13.6-9.4-22.8
		c-1.2,0.4-2.3,0.8-3.3,1.2c-2.7,0.9-5.5,1.9-8.2,2.8c-0.8,0.3-1.1,0.6-1.1,1.5c-0.1,6.2,1.8,11.8,4.4,17.4c2.8-0.4,5.1,0.2,6.3,3
		c0.8,1.9,0.2,4-1.4,5.4c-1.1,1-2.5,1.4-3.9,1c-1.3-0.3-2.4-1.1-3.7-1.7c0.1,0.8,0.2,1.5,0.3,2.3c0.1,2.4-1.4,4.3-3.7,4.9
		c-2,0.5-4.3-0.5-5.4-2.4c-1.1-1.9-0.9-4.6,0.9-5.9c1.3-1,1.3-1.9,1.1-3.4c-1.2-6.8-1.1-13.6,1.2-20.2c-1.2-0.5-1.9,0.1-2.4,1
		c-3.3,5.7-5.3,11.9-6.6,18.3c-0.1,0.4-0.2,0.7-0.2,1c-0.3,1.9-1.1,3.7,1.7,4.9c2.2,0.9,2.7,3.6,1.8,5.8c-0.8,1.9-3.2,3.3-5.1,3.1
		c-2.3-0.4-4.1-2.2-4.4-4.5c-0.3-2.5,1.6-4.6,4.6-5.4c1-4.1,1.7-8.2,2.9-12.2c1.2-3.9,3-7.6,4.5-11.4c-4.8,0.7-8.9,2.1-11.8,6.5
		c-3.3,5.2-5.5,10.6-6.7,16.6c-1.3,5.8-3.1,11.4-6.8,16.2c-2.2,2.9-4.9,4.9-8.8,4.5c-1.3-0.2-2.6-0.7-4.3-1.2
		c0.2,0.6,0.4,1.1,0.7,1.6c2.7,4.2,4.1,8.9,4,13.8c-0.3,12.3-9,22-20.2,24.1c-1,0.2-2,0.4-3,0.6
		C303.7,594.3,302.6,594.3,301.5,594.3z M253.3,90.1C174,108,96.4,180.5,90.7,285.7c-2.3,41.5,7.1,80.4,27.6,116.6
		c0.5-0.5,0.8-0.8,1.5-1.3c2.6,2.9,5.3,5.5,7.7,8.5c2.9,3.7,4.7,7.9,4.4,12.8c0,0.6,0.4,1.3,0.8,1.8c15.6,20.9,34.4,38.3,56.4,52.3
		c0.6,0.4,1.3,0.8,2.1,1c3.2,0.9,6,2.4,8.5,4.4c1.2,0.9,2.3,2.2,3.6,2.9c12.9,6.9,26.4,12.4,40.5,16.5c11.5,3.3,23.1,5.6,34.9,7
		c2.3,0.3,4.7,0.4,7.1,0.7c0-0.5,0-0.9,0-1.2c-0.4-2.9-0.7-5.8-1.1-8.8c-0.1-0.9,0-2.4-0.5-2.6c-1.7-0.9-1.2-2.4-1.4-3.7
		c-0.7-4.1-1.3-8.3-1.8-12.5c-0.1-1.2-0.7-1.4-1.6-1.7c-5-1.4-10-2.9-15-4.3c-3.8-1.1-7.7-2.2-11.5-3.3c-4.9,7.9-10.6,10.8-17.5,8.8
		c-6.2-1.8-10.4-7.4-10.3-13.8c0-6.3,4.3-11.9,10.5-13.7c6.9-1.9,12.5,0.9,17.3,8.9c8.9-2.5,17.8-5.1,26.9-7.7c0-1.7-0.1-3.3,0-4.9
		c0-1-0.4-1.3-1.2-1.7c-2.9-1.3-5.8-2.5-8.5-4c-2.7-1.5-5.5-2.8-7.7-5.1c-2.4-2.5-5.2-4.7-7.5-7.3c-7.6-8.6-12.3-18.8-16-29.5
		c-4-11.7-6.3-23.8-8.9-35.9c-2.6-11.9-5.8-23.6-11.1-34.6c-2.9-6.1-6.2-12-12-16.1c4.3-2.8,9-3.5,13.9-2.8c5.4,0.7,10,3.3,13.9,6.9
		c2.5,2.3,4.9,4.7,7.3,7c0.3,0.3,0.9,0.2,1.3,0.3c0-0.4,0.1-0.9-0.1-1.2c-1.1-2.1-2.3-4.2-3.4-6.3c-5.7-10.4-11-20.9-14.9-32.1
		c-3.9-11.2-6.3-22.6-5.1-34.6c0.7-7.2,2.7-14,6.1-20.4c0.7-1.3,1.5-2.6,2.4-4c2.9,4.3,5.5,8.4,8.3,12.3c3.6,4.9,7.3,9.8,11,14.6
		c0.3,0.4,0.9,0.5,1.4,0.8c0.1-0.1,0.2-0.2,0.3-0.4c-0.2-0.4-0.4-0.8-0.6-1.2c-6.1-12.2-11.5-24.6-15.4-37.7
		c-3-9.9-5.5-19.9-4.5-30.4c0.4-3.6,1.3-6.9,3.2-10c0.2-0.4,0.6-0.7,0.8-1c6.8,7,12.9,14.4,21.1,19.6c0.1-0.6-0.1-1.1-0.3-1.5
		c-0.9-1.9-1.9-3.8-2.8-5.8c-3.8-8-7.6-16-10.1-24.4c-3.2-11-4.3-22.2-3.3-33.6c0.2-2.5,0.7-5.1,1.1-8.1c3.7,1.7,7.2,3,10.5,4.7
		c3.3,1.8,6.3,4,9.8,6.2C255.4,117.5,252.7,104.1,253.3,90.1z M394.8,331.6c-0.4,3.2-0.8,6.2-1.3,9.2c-2.3,13.1-5.6,26-10.3,38.4
		c-5.7,15.3-13.9,29.3-23.9,42.1c-5.5,7-11.6,13.5-18.7,19c-4.1,3.1-8.4,5.8-13.1,7.7c-0.8,0.3-1.1,0.8-1,1.6c0.1,0.6,0.1,1.1,0,1.7
		c-0.3,1.6,0.8,2.2,2,2.6c7.8,2.3,15.6,4.5,23.4,6.7c1.1,0.3,1.7,0.2,2.3-1c4.8-9.8,18.1-10.7,24.3-2c4.2,5.9,3.5,14.3-2.5,19.2
		c-7.2,5.8-16.1,3.3-20.2-2.1c-0.9-1.2-1.6-2.6-2.5-3.9c-9.3,2.6-18.6,5.3-27.9,8c-0.8,5.6-1.6,11.2-2.4,16.9
		c-1.1,0-1.3,0.7-1.4,1.8c-0.1,1.4-0.4,2.7-0.5,4.1c-0.3,2.4-0.5,4.7-0.8,7.2c0.6,0,0.9,0,1.2,0c6.3-0.8,12.7-1.4,18.9-2.5
		c20.7-3.6,40.4-10.3,59.2-19.8c2.4-1.2,4.6-2.6,6.7-4.3c1.9-1.6,4.3-2.7,6.5-3.9c1.3-0.7,3-1,4.2-1.8c22.1-14,41-31.6,56.7-52.6
		c0.4-0.6,0.6-1.4,0.6-2.1c-0.1-2.8,0.5-5.4,1.7-7.9c2.4-5.1,6.2-9,10.5-12.5c0.1-0.1,0.2,0,0.3,0c0.3,0.3,0.6,0.6,0.9,0.9
		c33.5-57.1,40.2-137.4,2.2-206.9c-19.5-35.7-47-63.6-82.3-83.7c-18.3-10.4-37.7-17.9-58.5-22.4c0.7,9.8-0.2,19.3-2,29.1
		c9.7-4.1,17.5-10.3,24.3-18.1c0.2,0.6,0.3,0.9,0.4,1.3c0.4,3.9,1,7.9,1,11.8c0.1,12.3-2,24.3-5,36.1c-4,15.9-9.6,31.3-16,46.4
		c-0.2,0.5-0.3,1-0.6,1.9c12-6.8,21.1-16.2,29.4-26.7c0.1,0.7,0.1,1.1,0.1,1.6c0.4,5.5,1.1,11.1,1,16.6c0,6.6-0.6,13.2-1.1,19.8
		c-0.4,6.1-0.8,12.2-1.6,18.2c-0.9,7.1-2.1,14.3-3.3,21.4c-2.5,13.7-6.4,27-12,39.8c-0.2,0.4-0.2,0.8-0.4,1.5
		c6-2.3,11.4-5.2,16.5-8.6c5.1-3.4,9.8-7.3,14.3-12.1c-0.2,13.9-2,27-5.5,40c-3.5,13-8.7,25.3-17,36.1
		C380.1,342.4,387.2,336.9,394.8,331.6z M326.5,445.2c2.2-1.2,4.2-2.2,6.1-3.4c7.8-4.8,14.1-11.2,19.7-18.3
		c8.3-10.6,14.7-22.4,20.2-34.8c5.6-12.7,10.1-25.7,13.4-39.2c0.1-0.5,0.1-1,0.2-1.7c-8,3.6-16.2,4.9-24.8,5.6
		c0.8-1.3,1.5-2.3,2.1-3.4c3.2-5.8,6.6-11.5,9.5-17.4c3.3-6.9,6.4-14,9.1-21.2c2.4-6.3,3-13,3.8-19.6c0.2-1.8,0.4-3.5,0.6-5.4
		c-5.5,2.1-10.8,4.1-16,6.3c-5.2,2.1-10.3,4.5-15.4,6.7c14.1-34.4,17.7-70.7,17.7-108c-8.6,6.9-18,11.8-29.1,13.7
		c0.3-0.8,0.5-1.3,0.6-1.8c2.8-8.3,5.7-16.5,8.5-24.8c6-17.5,10.6-35.4,12.5-53.9c0.3-3.1,0.4-6.3,0.7-9.9c-8,4.8-16.3,7.8-25,10.6
		c2.1-5.1,2.9-10.2,3.2-15.4c0.6-12.2-0.7-24.2-4.1-36c-0.6-2.1-1.4-4.2-2.3-6.8c-4.4,4.9-9.6,7-15.6,7.4c-0.1-0.5-0.1-0.9-0.1-1.3
		c-0.3-6.9-1.6-13.6-3.6-20.1c-2.5-8.2-6.4-15.9-10.2-23.6c-1.1-2.3-2.1-4.7-3.4-7.6c-5.3,6.3-9.3,13.1-12.8,20.2
		c-3.5,7.1-6.3,14.5-8.4,22.1c-2.1,7.7-3.5,15.5-4.1,23.6c-4.5-4.9-9-9.1-15.7-10.7c-4.5,22.3-1.3,44.2,1.2,66.2
		c-6.3-3.7-12.4-7.1-19.2-9.5c-0.1,0.4-0.2,0.7-0.2,0.9c-0.5,5.7-0.4,11.3,0.7,16.9c3.5,17.6,8.6,34.7,16.8,50.7
		c0.4,0.9,0.8,1.8,1.3,2.7c-0.1,0.1-0.2,0.2-0.3,0.4c-4.6-2.4-9.3-4.7-13.8-7.3c-4.5-2.6-8.9-5.5-13.9-8.6c0.5,4.6,0.7,8.8,1.4,12.9
		c1.9,11.7,5.5,23,10,33.9c4,10,8.6,19.8,13,29.6c0.1,0.3,0.2,0.6,0.5,1.2c-12.7-4.3-22.1-12.7-30.9-22.1c-0.6,2.6-1.1,5.2-1.2,7.7
		c-0.4,8.8,1.3,17.4,3.5,25.9c2.9,11.3,6.8,22.3,11.2,33.1c3,7.2,6.3,14.3,9.5,21.4c1.1,2.5,2.3,5,3.5,7.6c-0.3,0-0.4,0.1-0.6,0
		c-6-0.6-10.9-3.5-15-7.7c-3.3-3.4-7-6.3-11.3-8.5c-1.4-0.8-3-1.3-4.8-2c0.1,0.7,0.2,1,0.2,1.1c0.1,0.3,0.3,0.7,0.5,1
		c4.6,8.4,7.2,17.4,8.7,26.8c1.9,11.3,3.5,22.5,5.6,33.8c2.2,11.4,5.6,22.5,11.4,32.7c4.4,7.8,10.1,14.6,17.5,19.8
		c3.3,2.3,6.8,4.3,10.8,5.8c0-0.8,0-1.5,0-2.2c0-83.3,0-166.7,0-250c0-12-0.3-24.1,0.9-36.1c0.8-7.6,1.6-15.1,2.9-22.6
		c2.6-14.7,7.3-28.8,14-42.2c1.8-3.7,3.7-7.4,5.4-11.1c0.2,0,0.3,0,0.3,0c0.8,1.6,1.6,3.3,2.5,4.9c10.1,18.9,16.4,39,18.9,60.3
		c1.3,10.7,1.9,21.5,1.9,32.3c0,88.6,0,177.2,0,265.8C326.5,443.4,326.5,444.1,326.5,445.2z M306.2,447.2c0-0.3,0-0.9,0-1.5
		c-0.2-15.2-0.4-30.4-0.6-45.6c-0.3-22.1-0.6-44.1-0.9-66.2c-0.2-12.4-0.3-24.8-0.4-37.2c0-1.2-0.4-1.9-1.6-1.5
		c-0.4,0.1-0.7,1.1-0.7,1.7c-0.4,25.5-0.7,51-1.1,76.6c-0.3,24-0.6,48-1,71.9c0,0.7,0,1.4,0,1.9C302,447.2,304,447.2,306.2,447.2z
		 M268.3,516.8c0,0.1-0.1,0.2-0.1,0.4c0.2,0.2,0.5,0.5,0.7,0.7c5.3,4.1,9.6,9,12.7,14.9c2.4,4.5,4.3,9.3,4.1,14.6
		c-0.1,1.5-0.5,2.9-0.8,4.6c0.5-0.4,0.7-0.6,1-0.8c2.2-1.5,4.4-3.1,6.8-4.5c0.9-0.5,1.3-1,1.1-2c-0.2-1.7-0.4-3.4-0.7-5.2
		c0-0.2-0.3-0.5-0.4-0.7c-0.3-0.4-0.6-0.8-0.7-1.3c-0.4-2.2-0.6-4.3-1-6.5c-0.2-0.9-0.8-1.6-0.9-2.5c-0.4-2.5-0.6-5-1-7.4
		c-0.2-1.1-0.8-2.2-2.3-2.3c-3.7-0.3-7.4-0.7-11-1.1C273.2,517.5,270.8,517.1,268.3,516.8z M338.3,516.8c-0.7,0-1,0-1.2,0
		c-5.7,0.6-11.4,1.3-17.1,2c-2.2,0.3-2.8,0.9-3,3.1c-0.2,1.9-0.4,3.9-0.8,5.8c-0.3,1.6-0.9,3.1-1.3,4.6c-0.7,2.3,0.4,5.1-1.8,7
		c-0.1,0.1,0,0.2-0.1,0.3c-0.2,1.7-0.4,3.5-0.7,5.2c-0.1,0.9,0.3,1.3,1,1.7c2,1.2,4,2.5,6,3.8c0.6,0.4,1.1,1,1.9,1.7
		c-0.1-0.6,0-0.8-0.1-0.9c-1.2-2.9-1-5.9-0.3-8.9c2.1-8.6,6.7-15.6,13-21.5C335.2,519.4,336.6,518.3,338.3,516.8z M238.3,510.4
		c-0.2,2.3-0.1,4.6-0.7,6.8c-0.9,3.3-2.1,6.6-3.4,9.8c-0.3,0.8-0.1,1.2,0.3,1.7c1.1,1.2,2.1,2.4,1.9,4.1c-0.2,1.2,0.2,1.1,1.1,0.8
		c1.1-0.3,2.2-0.5,3.3-0.8c0.3-0.1,0.6-0.4,0.6-0.7c0.3-2.9,1-5.8,0.9-8.6c-0.2-3.6-0.9-7.2-1.6-10.8
		C240.5,511.5,240.1,510.1,238.3,510.4z M369.8,533.8c-0.3-2.2,0.2-4.1,2-5.4c0.2-0.1,0.2-0.6,0.1-0.8c-0.9-2.7-2-5.3-2.7-8
		c-0.7-2.5-0.9-5.1-1.4-7.7c-0.1-0.6-0.4-1.1-0.7-1.6c-0.5,0.4-1.2,0.8-1.4,1.3c-1.5,4.2-2.5,8.4-1.8,12.9c0.4,2.8,0.4,5.6,0.6,7.8
		C366.5,533,368,533.4,369.8,533.8z"/>
</g>
</svg>
