<?xml version="1.0" encoding="utf-8"?>
<!-- Generator: Adobe Illustrator 26.2.1, SVG Export Plug-In . SVG Version: 6.00 Build 0)  -->
<svg version="1.1" id="Vrstva_1" xmlns="http://www.w3.org/2000/svg" xmlns:xlink="http://www.w3.org/1999/xlink" x="0px" y="0px"
	 viewBox="0 0 600 600" style="enable-background:new 0 0 600 600;" xml:space="preserve">
<style type="text/css">
	.st0{fill-rule:evenodd;clip-rule:evenodd;fill:#020203;}
</style>
<g>
	<path class="st0" d="M152.3,427.7c0.8,1.8,2.3,7-1.9,13.7l9.3-8.7c2.4-2.2,2.8-4.1,1.5-5.5C159,424.9,155.2,426,152.3,427.7z"/>
	<path class="st0" d="M150.2,430.4c-2.3-2.5-6.2-1.5-8.8,1c-3.7,3.5-5.3,10-2.3,13.1c2.5,2.7,6.3,1.3,8.9-1.1
		C151.4,440.3,153.4,433.9,150.2,430.4z"/>
	<path class="st0" d="M206.7,465.7c-3.1-1.7-6.1,0.4-8.3,4.3c-5.2,9.3-4,23,1,25.8c3.1,1.7,6.1-0.4,8.3-4.3
		C212.8,482.1,211.7,468.4,206.7,465.7z"/>
	<path class="st0" d="M147.8,127.4c8.7,8.3,18.6,12.3,25.5,5l2.5-2.6l-31.7-30.2l-2.5,2.6C134.9,109.4,139.5,119.5,147.8,127.4z"/>
	<path class="st0" d="M96.8,316.1c-0.9-3.4-4.5-4.2-8.8-3.1c-10.3,2.7-19.4,13-18,18.5c0.9,3.4,4.5,4.2,8.8,3.1
		C89.2,331.9,98.3,321.6,96.8,316.1z"/>
	<path class="st0" d="M305.6,486.4c-3.6,0.4-5.3,2.8-5.3,6.6l13.2-1.4C312,488.3,308.9,486,305.6,486.4z"/>
	<path class="st0" d="M102.8,175.9l11,6.4c2.8,1.6,4.7,1.6,5.7-0.2c1.6-2.7-0.6-6-3.1-8.4C114.9,175,110.4,178,102.8,175.9z"/>
	<path class="st0" d="M100.1,174.2c4,2.3,10.8,2.4,13.1-1.6c1.7-2.9-0.3-6.3-3.5-8.2c-4.4-2.5-11.1-2.2-13.3,1.6
		C94.7,169.1,97.1,172.4,100.1,174.2z"/>
	<path class="st0" d="M574.1,216.8L574.1,216.8c-18.9,6.9-45.5,0.5-57.7,17.6c10.4-3.8,21.2-3.6,31.5-0.6
		c-8.1,5.8-16.3,11.5-24.4,17.3c1,1,26.1-1.9,26.1-0.9c-9.2,8.7-20.6,19.1-29.8,27.8l16.4,1.9c4.2,0.6,4.6,5.2,4.4,10.1
		c-0.3,7.9-6.9,16.8-11.3,22.9c-7,9.7-17.1,23.3-30.3,23.4c-11.2,0.1-18.1-9.3-20.2-19.4c-0.8-3.8,0.8-6.5,1.2-10.1
		c1.1-11.1,9.9-23.1,20.8-30.4c-5.5-0.6-13,0.7-18.5,0c-6.9-4.2-0.8-8-1.2-9.5c3.7-6.4,8.8-12.3,12.5-18.6
		c-11.1,1.9-20.7,4.8-29,8.8c0.7-2.4,1.5-4.9,2.4-7.5c-5.2,1-7.5,1.5-9.8,1.8c-2,0.3-4.5,1.3-5.9,0.4c-3.3-2-6.2-0.5-9.1-0.6
		c-4.1-0.1-8.7-4.8-11.9-8.4c-2.1-2.4-2.1-6.5-2.9-9.5c8.3-3.6,16.6-7.6,25.2-10.5c2.9-1,6.8,0.6,10.1,1.6c2.6,0.7,5,3.2,7.4,3.1
		c4-0.2,9.7-0.6,11.6-3.2c3.3-4.4-1.6-7.5-5.1-10.1c-3.7-2.7-7.2-5.7-11.2-8.9c1.3-3.8,2.8-7.9,4.7-13.4c-4.5,1.8-7.9,3.4-11.3,4.6
		c-3,1-7.2,3.2-9.1,2c-10.2-6.2-11.8,2.4-14.2,8.1c-2.5,6-7.3,12.3-0.7,20.2c-8.6,1.3-16.2,2.4-24,3.6c0.9,4.3,1.5,7.4,2.2,10.5
		c-5.5,0.7-15-5.4-14.8-11.4c0.3-8.7-6.3-10.6-11.2-14.4c-4.7-3.7-10.3-6.5-14.4-10.8c-2.8-2.9-5.1-3.7-6.7-0.7
		c-1,1.9,0.1,5.8,1.6,7.9c2.7,3.9,6,7.5,9.8,10.4c3.7,2.9,8.3,4.9,11,6.4c-1.5,4.7-2.7,8.5-3.2,10.1c-3.7-3.7-7.8-7.9-12.1-11.9
		c-5.3-4.8-10.8-9.1-16.1-13.9c-3.2-2.8-5.7-5.5-10.4-2c-4.7,3.4-9.9,6.2-16.4,3.8c-1.6-0.6-6.2,1.7-6.1,2.2c1.2,7.5-5.3,8-9.1,11.3
		c-3,2.6-3.3,7.9-6.1,11c-3.6,4.2-8,7.9-12.8,10.7c-3.2,1.9-7.6,1.6-10.5,2.1c-4.7-1.8-8.9-3.3-15.3-5.7c0-8.9,0-19.6,0-31.5
		c10.3-6.7,22.2,0.7,33.2-2.3c4.9-11.4,2.6-17.8-7.5-22.1c-2.1-0.9-3.5-3.1-5.2-4.8c2.4-0.9,4.7-2.1,7.1-2.7c1.4-0.3,3.1,0.3,5,0.6
		c0.4-2,0.8-3.7,1.1-5.5c8,2.1,12.6-0.5,14.6-8.2c0,0-0.1,0-0.1,0.1l0.1-0.2c0,0.1-0.1,0.2-0.2,0.2c0-0.1,0-0.2,0-0.2
		c-8.2,1.9-16.4,3.7-24.6,5.6c-2,0.5-4.1,1-7.4,1.7c2.7-3.3,4.7-5.8,7.1-8.7c-1.7-0.7-3.1-1.3-4.6-2c2.8-4.4,5.4-8.4,8.9-13.9
		c-1.4-0.6-4-2.7-6.4-2.5c-1.7,0.2-3.9,3.3-4.4,5.4c-1.6,6.4-8.4,12.7-14.8,12.6c-1.4,0-4-1.5-3.9-1.8c1.4-5.5,2.8-11,4.9-16.2
		c0.9-2.1,3.4-3.9,5.5-5c2-1,4.5-1,8.6-1.7c-1.5-4.6-3.3-8.8-4.2-13.2c-0.3-1.5,1.7-3.5,2.7-5.3c0.9,0.8,1.8,1.6,2.6,2.2
		c3.5-2.1,7.3-4.4,12.3-7.4c-0.7,3.2-1.2,5.5-1.8,8.2c1.7,0.5,3.7,1.1,6.2,1.9c-1.2,3-2.2,5.7-3.7,9.4c5.6,6.6,12,13.2,17.2,20.6
		c1.5,2.2-0.1,6.5-0.3,9.9c0.1,0,0.1,0,0.2,0c0,0.1,0,0.1-0.1,0.2c3.3-1.5,8.5-2.4,9.4-4.8c3.4-9.4,11.3-10.3,20.5-12.1
		c-1.5-4.9-4.4-9.5-3.9-13.7c0.4-3.9,4.4-7.4,6.7-11c0.8,0.3,1.5,0.7,2.3,1c0.8,3.9,1.6,7.9,2.5,12.2c1.8-1.1,3.8-2.3,6.4-3.8
		c-3.1-5.9-6-11.6-9.2-17.8c-2.3,1.8-4.1,3.3-6,4.8c-6.3,5.1-12.7,3.3-14.9-4.7c-2.7-9.9-5.1-20.1,6.8-26.5c7-3.8,10.6-9.6,13.2-16
		c60.9,6.1,98,45.6,98,45.6c-1.3,39.6,29.9,68.1,41,78.7c11.1,10.6,15.1,36.6,15.1,36.6c21.5-32.3,2.4-60.2,12.3-67.3
		c9.9-7.1,15.9,9.5,15.9,9.5c3.9-25.9-24.4-61.7-35.3-65.1c-11-3.4-51.1-30.7-68.5-53.3C413,39.2,357.5,26,357.5,26
		c4.7-6.9,8.2-8.4,8.2-8.4c-16-5.6-34.9-3.8-49.1-0.9c-15.5,3.2-31.2,5.1-47,6.2c-25.9,1.8-51.7,8.1-75.3,18.2
		c-30.3,12.8-60.1,33.2-84.8,60.5c-1.5,1.7-7.5,8.7-9,10.5c-0.8-5.9-0.5-11.1-0.5-11.1c-5.2,8.3-8.6,16.3-10.8,23.3
		c-0.9,3-2.3,6-4,8.6c-2,3-4.3,6.6-5.1,8c-1,1.8-2.1,3.6-3.1,5.4c-6.4-5.4-10.6-12-10.6-12c-4.9,7.9-5,19.2-3.6,29.3
		c0.8,5.7,0.1,11.5-2,16.9c-0.6,1.5-1.1,2.9-1.5,3.9C48,179.3,39,165.8,39,165.8c-5.6,17-0.7,35.1,5.2,48.5
		c2.6,5.9,3.6,12.5,2.6,18.9l-0.1,0.5c-12.6-4.3-25-16.2-25-16.2c-0.2,13.6,3.7,23.1,9,30.1c8.2,10.9,12.7,24.1,13.4,37.8l0,0.1
		c-16.3-1.4-28.7-13.7-28.7-13.7c-2.9,22,14.7,40.3,28.5,51c3.6,2.8,8.6,16.2,9.7,20.6l0.1,0.3c-13.5-0.7-36.1-8.5-36.1-8.5
		c4.4,20,14.4,24.8,33,37.2l0.2,0.1C60.7,379,72.7,391,73.2,392c-14,7.7-33.2,1.2-33.2,1.2c12.8,21.6,38.2,26.2,50.4,27.1
		c0.2,0.2,0.4,0.5,0.5,0.9c11.3,23-22.9,34.1-22.9,34.1c13,8,28.6,7.4,38.8,5.8c8.1-1.3,16.2,2.2,20.6,9.1c0.9,1.3,1.4,2.5,1.3,3.2
		c-2.5,21.2-23.1,22.7-23.1,22.7c18.5,14,36.2,7.1,51,7.8c14.8,0.7,30.6,10.4,30.6,10.4c-5.2,15.3-25,21.9-25,21.9
		c20.7,15.3,49.1,2.8,60.7-6.4c11.5-9.2,35.4,2,35.4,2c-4.1,15.2-15.1,24.5-15.1,24.5c40.7,9.3,71.9-27.6,71.9-27.6
		c1.7,20-19.1,40.9-19.1,40.9c36.4,2.3,58.1-44.1,58.1-44.1l11.7,0.1c6.5,19-13.7,36.6-13.7,36.6c22.8,0.6,39.2-16.2,48.5-37.2
		c9.3-21,28.5-20.3,28.5-20.3L418.4,541c18.7-8,30.8-59.5,63.2-72.6l3.3,19.2c7.4-21.7,45.5-49.2,45.5-49.2
		c-33.7,57.6-43.9,42.8-74.7,79c0,0,48.6-10.1,89.5-81.8c-16.4,41.5-76.4,93-61,85.3c17.3-8.7,74.1-46.8,68.1-98.1
		c42.1-39.9,12.2-8.6,15.8-50.7c3.5-17.9,7-35.7,10.4-53.6c-4.8-7.1-9.6-14.2-14.4-21.3c-5.3-17.1,4-44.6,16.4-65.6
		C583.9,225.7,580.7,218.3,574.1,216.8z M141.2,102.1l10.8-11.3l0.4,5.2l26.8,25.5l5.2,0.2L173.5,133c-9.2,9.5-22.9,9.9-32.1,1.1
		C132,125.2,132.5,111.1,141.2,102.1z M118.5,127.3l1.1,5.1l17.6,13l3.9-1.4l-3.9,11.8L128,149c5.6,6.2,6.7,10.5,1.8,16.9l-5.2-6.9
		c2.5-3.9,5.3-8.5,0.6-11.9l-10.6-7.9l-5.2,0.5L118.5,127.3z M90.7,168.9l6.8,3.9c-3.9-4.5-3.9-9.3-1.7-13c3-5.2,9.6-6.8,14.9-3.7
		c5.5,3.2,7,10.1,3.9,15.4c-2,3.5-3.7,4-5.4,4.5c2-0.2,6.6-1,9-5.2l2.4-4.2c2.6,4.3,2.3,11-0.6,16c-2.9,5-7.7,8.4-13.2,5.2l-17-9.9
		l-5.1,1L90.7,168.9z M120,210.3l-6.6,8l-0.2,10.4l-0.5-0.1l-4.1-12.1l11.1-6.4L120,210.3z M108.4,249.5l-5.5,1.5l0.2-17.3l0.4-0.2
		L108.4,249.5z M74.3,203.8c3.2-8.5,12.7-12.7,21-9.6c8.5,3.2,12.7,12.5,9.6,21c-2,5.4-6.6,9.2-12.3,10.4l3.4-9c4.8-1,8.1-3.2,9-5.7
		c1.2-3.3-1.6-6.1-5.5-7.5c-8.6-3.2-23-1.4-25.3,5c-1.3,3.4,1.9,6.2,6.3,7.7l-2,5.4C73.6,216.9,72,210,74.3,203.8z M67,228.2
		l3.1,4.2l21.5,4.4l3-2.9l1.4,12.3l-27.5-5.7l-4.5,2.6L67,228.2z M62.5,304.4l-0.8-14.6l2.9,2.3l14.7-8c-2.7-1.4-4.6-1.5-5-1.4
		l-9.1,0.5l-3.7,3.7l-0.9-15.2l4.1,3.2l34-2l2.1-3.6l4.6,11.5l-28.5,1.6c4.6,1.3,8.7,5.1,11.5,8.7l5.3-2.1l0.7,12.5l-5.7-9
		c-0.8-1-1.6-2-2.4-2.9l-20.9,11.5L62.5,304.4z M67.7,328c-2.3-8.7,2.9-17.6,11.7-19.9c8.7-2.3,17.6,2.9,19.9,11.6
		c2.3,8.8-3,17.7-11.7,19.9C78.8,341.9,70,336.7,67.7,328z M92.8,380.4l-2,4.8l-6.6-13.7l5,1.4l17.2-8.2c2.9-1.4,4.2-4.8,2.9-7.4
		c-0.7-1.6-2.3-2.8-4.4-3.5l-20.2,9.7l-2,4.8l-6.6-13.7l5,1.4l19.3-9.2l0.6-4.1l9,8.7l-4.4,2.1c4.4,1.5,7.6,4,9,7
		c2.2,4.6,0,9.4-4.6,11.6L92.8,380.4z M104.5,405.7l-0.2,0.1c-0.7-0.5-1.3-1.2-1.7-1.8c-4.3-6.8-2.2-12.3,4.4-16.5l16.2-10.3
		l-2.1-3.4l13.6,5.9l-6.6,4.2l3,4.8l-0.4,0.3l-3-4.8l-18.8,11.9C104.4,399,102,402.2,104.5,405.7z M118.9,419.7l-1,5.1l-9.2-12.1
		l5.2,0.4l17.4-13.2l-0.3-4.1l10.2,7l-9.2,7c7.6-3.7,11.9-3.5,16.7,3l-8.1,3c-3-3.5-6.7-7.4-11.3-4L118.9,419.7z M148.7,454.4
		l-0.5,5.2l-8.1-8.6l5.7-5.3c-5.5,2.4-10,1-13-2.1c-4.1-4.4-3.8-11.1,0.8-15.4c4.7-4.4,11.7-3.8,15.9,0.7c2.8,2.9,2.7,4.7,2.7,6.5
		c0.4-2,0.9-6.6-2.4-10.1l-3.3-3.5c4.9-1.2,11.2,1,15.2,5.2s5.8,9.8,1.2,14.1L148.7,454.4z M175,460.2l-8.4,10.3l0.2,5.2L155,466
		l5.1-0.8l13.8-17l-1.2-4l11.6,4.4l-7.3,8.9c6.5-5.3,10.8-6.2,17-1l-7.2,4.8C183.2,458.7,178.7,455.7,175,460.2z M217.3,488.6
		c-4.4,7.9-14.2,10.8-22.2,6.4c-7.9-4.4-10.7-14.3-6.3-22.2c4.3-7.8,14.2-10.8,22.1-6.4C218.9,470.8,221.6,480.8,217.3,488.6z
		 M236.6,511.2l11-7.9l-3.8,10.6l-23.5-7.1l23.9-25.7l-5.8-1.7l-10.9,7.9l3.7-10.6l21.4,6.4l-23.8,25.7L236.6,511.2z M284.9,494.2
		l-8.5,18l-0.4,5.9l-6.9-0.5l-7.6-29.1l-2.7-3.8l14.5,1.1l-3.1,3.4l6.1,22.2l8.1-17.2l-3.7-7.8l11.1,0.8L284.9,494.2z M312.3,517.3
		c-9.4,1-17.3-5.4-18.3-14.4c-1-9,5.5-17.1,14.5-18.1c5.5-0.6,11,1.6,14.6,6.1l-12.3,1.3c8.7,0.5,14.5,4.5,15.3,11.4
		C326.7,509.8,322,516.3,312.3,517.3z M297,474.1l0-0.5l10.1,2.3l9.4-4.4l0.2,0.5l-9,9.2L297,474.1z M361,506.7l-1.1-3.7
		c-1.5,3.4-4.2,5.5-7.6,6.5c-6.9,2-14.5-3.5-17-12.1c-2.5-8.6,1.1-17.3,7.9-19.3c3.7-1.1,7-0.4,9.9,1.5l-2.7-9.4l-4-1.3l10.2-7
		l11.2,38.7l4.4,2.8L361,506.7z M397.4,492.9l1.2-3.5L386,478.3c-0.4,3,0.2,4.8,0.4,5.2l3.6,8.3l4.7,2.2l-14,6.1l1.6-5l-13.6-31.2
		l-4.1-0.7l9.2-8.3l11.4,26.2c-0.3-4.7,1.7-9.9,4.2-13.8l-3.8-4.2l11.4-5l-6.5,8.4c-0.7,1.1-1.3,2.2-1.9,3.3l18,15.6l4,1.7
		L397.4,492.9z M433.8,474.5l-3.8-6.8c1,5.9-1.5,9.9-5.3,12c-5.3,2.9-11.7,0.9-14.7-4.5c-3.1-5.6-0.8-12.3,4.6-15.3
		c3.5-1.9,5.2-1.5,6.9-1.1c-1.8-0.9-6.1-2.5-10.4-0.2L407,461c0-5,3.7-10.7,8.7-13.4s11-3.2,14,2.3l9.5,17.2l4.9,1.7L433.8,474.5z
		 M465.1,306.4c-3.8,7.9-8.1,23.7-16,36.6c-8.4,13.8-20,25.2-19.8,32.2c7.1-4.8,18.3-10.5,25.4-15.3c0.8,0.7,0.7,0.6,1.5,1.4
		c-5.1,9.2-9.8,23.2-12.5,37.2c-1,5.2-14.8,13.8-18.9,16.9c-6.9,5.2-14.3,9.8-22.1,13.8c-15.3,8-32.2,13.3-49.3,15.8
		c0.3-0.4,0.5-0.8,0.8-1.2c5.2-7.7,6-19.3,0.8-26.8c-2.7-3.9-7.6-7.3-8.4-11.5c-0.7-4.2,2.5-9,3.8-13c-4.8-8.1-16.2-1.9-20.7-11
		c-0.8-1.6-8.1-0.3-12.3,0.3c-11.9,1.7-23.9,5.9-35.5,4.8c-8.5-0.8-16.7-7.7-24.5-12.8c-4.3-2.9-7.1-8.1-11.2-11.4
		c-6.5-5.2-9.5-10.6-6.8-19.4c1.5-4.8,1.9-11.5-0.4-15.5c-3.5-6-1.7-10.2,0.9-14.8c5.2-9.2,9.2-19.3,20.1-24.2
		c2.7-1.2,3.8-6.3,5.6-9.6c2.4-4.3,4.4-9.1,7.5-12.8c3.1-3.7,7.3-6.5,11.6-10.1c6.5,2.7,13.7,2.7,22.3-0.3c11.7-4,24.6-4.7,37-6.7
		c1-0.2,2.1,0.2,3.2,0.3c3.7,0.4,10.1-0.1,10.5,1.2c1.2,4.3,0.2,9.2,0,16.2c2.5,0.7,7.7,1.7,12.4,3.7c7.5,3.2,14.8,6.8,21.9,10.6
		c5.1,2.7,7.4,1.4,8.5-4c1.3-6.3,5.5-8.2,11.1-5.6c8.1,3.8,16.2,7.5,25.2,7.4c-1.9,2.3-3.7,4.6-5.4,7.1c1-1,2.9-2.3,5.7-1.7
		c7.8,0.3,16.2-2.5,24.3-0.5C464.5,291.4,468.9,298.5,465.1,306.4z"/>
	<path class="st0" d="M306,492.9l-5.8,0.6c0.2,10.3,7.8,20.6,17,19.6c5.2-0.6,8.5-5.4,8-10.3C324.4,495.6,315.2,491.8,306,492.9z"/>
	<path class="st0" d="M346.9,478.6c-4.7,1.4-5.4,10-3.5,16.5c1.9,6.5,7,13.4,11.7,12.1c2.1-0.6,3.6-2.8,4.5-5.1l-6.2-21.5
		C351.4,479,349,478,346.9,478.6z"/>
	<path class="st0" d="M420.9,451.1c-1.6-2.9-3.2-3.8-5-2.8c-2.7,1.5-2.6,5.5-1.7,8.7c2-0.3,7.4-0.5,12.8,5.2L420.9,451.1z"/>
	<path class="st0" d="M416.4,459.7c-3,1.6-3,5.6-1.2,8.8c2.4,4.4,8.4,7.6,12.2,5.5c3.2-1.8,2.9-5.8,1.2-8.9
		C426.3,461.1,420.5,457.5,416.4,459.7z"/>
</g>
</svg>
