<?xml version="1.0" encoding="utf-8"?>
<!-- Generator: Adobe Illustrator 26.2.1, SVG Export Plug-In . SVG Version: 6.00 Build 0)  -->
<svg version="1.1" id="Vrstva_1" xmlns="http://www.w3.org/2000/svg" xmlns:xlink="http://www.w3.org/1999/xlink" x="0px" y="0px"
	 viewBox="0 0 600 600" style="enable-background:new 0 0 600 600;" xml:space="preserve">
<style type="text/css">
	.st0{fill-rule:evenodd;clip-rule:evenodd;fill:#020203;}
</style>
<path class="st0" d="M574.1,216.8L574.1,216.8c-18.9,6.9-45.5,0.5-57.7,17.6c10.4-3.8,21.2-3.6,31.5-0.6
	c-8.1,5.8-16.3,11.5-24.4,17.3c1,1,26.1-1.9,26.1-0.9c-9.2,8.7-20.6,19.1-29.8,27.8l16.4,1.9c4.2,0.6,4.6,5.2,4.4,10.1
	c-0.3,7.9-6.9,16.8-11.3,22.9c-7,9.7-17.1,23.3-30.3,23.4c-11.2,0.1-18.1-9.3-20.2-19.4c-0.8-3.8,0.8-6.5,1.2-10.1
	c1.1-11.1,9.9-23.1,20.8-30.4c-5.5-0.6-13,0.7-18.5,0c-6.9-4.2-0.8-8-1.2-9.5c3.7-6.4,8.8-12.3,12.5-18.6c-11.1,1.9-20.7,4.8-29,8.8
	c0.7-2.4,1.5-4.9,2.4-7.5c-5.2,1-7.5,1.5-9.8,1.8c-2,0.3-4.5,1.3-5.9,0.4c-3.3-2-6.2-0.5-9.1-0.6c-4.1-0.1-8.7-4.8-11.9-8.4
	c-2.1-2.4-2.1-6.5-2.9-9.5c8.3-3.6,16.6-7.6,25.2-10.5c2.9-1,6.8,0.6,10.1,1.6c2.6,0.7,5,3.2,7.4,3.1c4-0.2,9.7-0.6,11.6-3.2
	c3.3-4.4-1.6-7.5-5.1-10.1c-3.7-2.7-7.2-5.7-11.2-8.9c1.3-3.8,2.8-7.9,4.7-13.4c-4.5,1.8-7.9,3.4-11.3,4.6c-3,1-7.2,3.2-9.1,2
	c-10.2-6.2-11.8,2.4-14.2,8.1c-2.5,6-7.3,12.3-0.7,20.2c-8.6,1.3-16.2,2.4-24,3.6c0.9,4.3,1.5,7.4,2.2,10.5
	c-5.5,0.7-15-5.4-14.8-11.4c0.3-8.7-6.3-10.6-11.2-14.4c-4.7-3.7-10.3-6.5-14.4-10.8c-2.8-2.9-5.1-3.7-6.7-0.7
	c-1,1.9,0.1,5.8,1.6,7.9c2.7,3.9,6,7.5,9.8,10.4c3.7,2.9,8.3,4.9,11,6.4c-1.5,4.7-2.7,8.5-3.2,10.1c-3.7-3.7-7.8-7.9-12.1-11.9
	c-5.3-4.8-10.8-9.1-16.1-13.9c-3.2-2.8-5.7-5.5-10.4-2c-4.7,3.4-9.9,6.2-16.4,3.8c-1.6-0.6-6.2,1.7-6.1,2.2c1.2,7.5-5.3,8-9.1,11.3
	c-3,2.6-3.3,7.9-6.1,11c-3.6,4.2-8,7.9-12.8,10.7c-3.2,1.9-7.6,1.6-10.5,2.1c-4.7-1.8-8.9-3.3-15.3-5.7c0-8.9,0-19.6,0-31.5
	c10.3-6.7,22.2,0.7,33.2-2.3c4.9-11.4,2.6-17.8-7.5-22.1c-2.1-0.9-3.5-3.1-5.2-4.8c2.4-0.9,4.7-2.1,7.1-2.7c1.4-0.3,3.1,0.3,5,0.6
	c0.4-2,0.8-3.7,1.1-5.5c8,2.1,12.6-0.5,14.6-8.2c0,0-0.1,0-0.1,0.1l0.1-0.2c0,0.1-0.1,0.2-0.2,0.2c0-0.1,0-0.2,0-0.2
	c-8.2,1.9-16.4,3.7-24.6,5.6c-2,0.5-4.1,1-7.4,1.7c2.7-3.3,4.7-5.8,7.1-8.7c-1.7-0.7-3.1-1.3-4.6-2c2.8-4.4,5.4-8.4,8.9-13.9
	c-1.4-0.6-4-2.7-6.4-2.5c-1.7,0.2-3.9,3.3-4.4,5.4c-1.6,6.4-8.4,12.7-14.8,12.6c-1.4,0-4-1.5-3.9-1.8c1.4-5.5,2.8-11,4.9-16.2
	c0.9-2.1,3.4-3.9,5.5-5c2-1,4.5-1,8.6-1.7c-1.5-4.6-3.3-8.8-4.2-13.2c-0.3-1.5,1.7-3.5,2.7-5.3c0.9,0.8,1.8,1.6,2.6,2.2
	c3.5-2.1,7.3-4.4,12.3-7.4c-0.7,3.2-1.2,5.5-1.8,8.2c1.7,0.5,3.7,1.1,6.2,1.9c-1.2,3-2.2,5.7-3.7,9.4c5.6,6.6,12,13.2,17.2,20.6
	c1.5,2.2-0.1,6.5-0.3,9.9c0.1,0,0.1,0,0.2,0c0,0.1,0,0.1-0.1,0.2c3.3-1.5,8.5-2.4,9.4-4.8c3.4-9.4,11.3-10.3,20.5-12.1
	c-1.5-4.9-4.4-9.5-3.9-13.7c0.4-3.9,4.4-7.4,6.7-11c0.8,0.3,1.5,0.7,2.3,1c0.8,3.9,1.6,7.9,2.5,12.2c1.8-1.1,3.8-2.3,6.4-3.8
	c-3.1-5.9-6-11.6-9.2-17.8c-2.3,1.8-4.1,3.3-6,4.8c-6.3,5.1-12.7,3.3-14.9-4.7c-2.7-9.9-5.1-20.1,6.8-26.5c7-3.8,10.6-9.6,13.2-16
	c60.9,6.1,98,45.6,98,45.6c-1.3,39.6,29.9,68.1,41,78.7c11.1,10.6,15.1,36.6,15.1,36.6c21.5-32.3,2.4-60.2,12.3-67.3
	c9.9-7.1,15.9,9.5,15.9,9.5c3.9-25.9-24.4-61.7-35.3-65.1c-11-3.4-51.1-30.7-68.5-53.3C413,39.2,357.5,26,357.5,26
	c4.7-6.9,8.2-8.4,8.2-8.4c-16-5.6-34.9-3.8-49.1-0.9c-15.5,3.2-31.2,5.1-47,6.2c-25.9,1.8-51.7,8.1-75.3,18.2
	c-30.3,12.8-60.1,33.2-84.8,60.5c-1.5,1.7-7.5,8.7-9,10.5c-0.8-5.9-0.5-11.1-0.5-11.1c-5.2,8.3-8.6,16.3-10.8,23.3
	c-0.9,3-2.3,6-4,8.6c-2,3-4.3,6.6-5.1,8c-1,1.8-2.1,3.6-3.1,5.4c-6.4-5.4-10.6-12-10.6-12c-4.9,7.9-5,19.2-3.6,29.3
	c0.8,5.7,0.1,11.5-2,16.9c-0.6,1.5-1.1,2.9-1.5,3.9C48,179.3,39,165.8,39,165.8c-5.6,17-0.7,35.1,5.2,48.5
	c2.6,5.9,3.6,12.5,2.6,18.9l-0.1,0.5c-12.6-4.3-25-16.2-25-16.2c-0.2,13.6,3.7,23.1,9,30.1c8.2,10.9,12.7,24.1,13.4,37.8l0,0.1
	c-16.3-1.4-28.7-13.7-28.7-13.7c-2.9,22,14.7,40.3,28.5,51c3.6,2.8,8.6,16.2,9.7,20.6l0.1,0.3c-13.5-0.7-36.1-8.5-36.1-8.5
	c4.4,20,14.4,24.8,33,37.2l0.2,0.1C60.7,379,72.7,391,73.2,392c-14,7.7-33.2,1.2-33.2,1.2c12.8,21.6,38.2,26.2,50.4,27.1
	c0.2,0.2,0.4,0.5,0.5,0.9c11.3,23-22.9,34.1-22.9,34.1c13,8,28.6,7.4,38.8,5.8c8.1-1.3,16.2,2.2,20.6,9.1c0.9,1.3,1.4,2.5,1.3,3.2
	c-2.5,21.2-23.1,22.7-23.1,22.7c18.5,14,36.2,7.1,51,7.8c14.8,0.7,30.6,10.4,30.6,10.4c-5.2,15.3-25,21.9-25,21.9
	c20.7,15.3,49.1,2.8,60.7-6.4c11.5-9.2,35.4,2,35.4,2c-4.1,15.2-15.1,24.5-15.1,24.5c40.7,9.3,71.9-27.6,71.9-27.6
	c1.7,20-19.1,40.9-19.1,40.9c36.4,2.3,58.1-44.1,58.1-44.1l11.7,0.1c6.5,19-13.7,36.6-13.7,36.6c22.8,0.6,39.2-16.2,48.5-37.2
	c9.3-21,28.5-20.3,28.5-20.3L418.4,541c18.7-8,30.8-59.5,63.2-72.6l3.3,19.2c7.4-21.7,45.5-49.2,45.5-49.2
	c-33.7,57.6-43.9,42.8-74.7,79c0,0,48.6-10.1,89.5-81.8c-16.4,41.5-76.4,93-61,85.3c17.3-8.7,74.1-46.8,68.1-98.1
	c42.1-39.9,12.2-8.6,15.8-50.7c3.5-17.9,7-35.7,10.4-53.6c-4.8-7.1-9.6-14.2-14.4-21.3c-5.3-17.1,4-44.6,16.4-65.6
	C583.9,225.7,580.7,218.3,574.1,216.8z M465.1,306.4c-3.8,7.9-8.1,23.7-16,36.6c-8.4,13.8-20,25.2-19.8,32.2
	c7.1-4.8,18.3-10.5,25.4-15.3c0.8,0.7,0.7,0.6,1.5,1.4c-5.1,9.2-9.8,23.2-12.5,37.2c-1,5.2-14.8,13.8-18.9,16.9
	c-6.9,5.2-14.3,9.8-22.1,13.8c-15.3,8-32.2,13.3-49.3,15.8c0.3-0.4,0.5-0.8,0.8-1.2c5.2-7.7,6-19.3,0.8-26.8
	c-2.7-3.9-7.6-7.3-8.4-11.5c-0.7-4.2,2.5-9,3.8-13c-4.8-8.1-16.2-1.9-20.7-11c-0.8-1.6-8.1-0.3-12.3,0.3
	c-11.9,1.7-23.9,5.9-35.5,4.8c-8.5-0.8-16.7-7.7-24.5-12.8c-4.3-2.9-7.1-8.1-11.2-11.4c-6.5-5.2-9.5-10.6-6.8-19.4
	c1.5-4.8,1.9-11.5-0.4-15.5c-3.5-6-1.7-10.2,0.9-14.8c5.2-9.2,9.2-19.3,20.1-24.2c2.7-1.2,3.8-6.3,5.6-9.6c2.4-4.3,4.4-9.1,7.5-12.8
	c3.1-3.7,7.3-6.5,11.6-10.1c6.5,2.7,13.7,2.7,22.3-0.3c11.7-4,24.6-4.7,37-6.7c1-0.2,2.1,0.2,3.2,0.3c3.7,0.4,10.1-0.1,10.5,1.2
	c1.2,4.3,0.2,9.2,0,16.2c2.5,0.7,7.7,1.7,12.4,3.7c7.5,3.2,14.8,6.8,21.9,10.6c5.1,2.7,7.4,1.4,8.5-4c1.3-6.3,5.5-8.2,11.1-5.6
	c8.1,3.8,16.2,7.5,25.2,7.4c-1.9,2.3-3.7,4.6-5.4,7.1c1-1,2.9-2.3,5.7-1.7c7.8,0.3,16.2-2.5,24.3-0.5
	C464.5,291.4,468.9,298.5,465.1,306.4z"/>
</svg>
