<?xml version="1.0" encoding="utf-8"?>
<!-- Generator: Adobe Illustrator 26.2.1, SVG Export Plug-In . SVG Version: 6.00 Build 0)  -->
<svg version="1.1" id="Vrstva_1" xmlns="http://www.w3.org/2000/svg" xmlns:xlink="http://www.w3.org/1999/xlink" x="0px" y="0px"
	 viewBox="0 0 600 600" style="enable-background:new 0 0 600 600;" xml:space="preserve">
<g>
	<path d="M486.6,260.5c-14.2-53.8-9.4-109.1,15.6-159c1.4-3-0.9-5.5-3.9-5.1c-24.1,3.2-48.5,3.4-72.4-0.2
		c-17.9-2.8-35.4-8.5-53.1-11.9c-25.3-4.8-51.5-3.7-71.4,14.2c-0.7,0.7-1.1,1.4-1.1,2.3h-0.9c0-0.7-0.2-1.6-1.1-2.3
		c-20-17.9-46.2-19.1-71.4-14.2c-17.9,3.4-35.1,9.2-53.1,11.9c-24.1,3.9-48.2,3.4-72.4,0.2c-3-0.5-5.3,2.3-3.9,5.1
		c24.8,49.9,29.9,105.2,15.6,159c-11.5,43.4-31.9,88.7-20.9,134.6c10.3,43.4,51.5,75.4,83.4,102.9c37,31.9,78.3,65,122.9,85.9
		c0.5,0.2,1.1,0.2,1.6,0.2c0.5,0,0.9,0,1.6-0.2c44.6-20.9,85.9-54,122.9-85.9c32.2-27.6,73.3-59.5,83.4-102.9
		C518.6,349.2,498.1,303.9,486.6,260.5z M490.3,391.2c-8,34.2-40.9,62-69.6,86.6c-2.8,2.3-5.5,4.6-8,6.9
		c-34.7,29.9-72.4,60.2-113,80.4c-40.7-20.2-78.3-50.5-113-80.4c-2.8-2.3-5.3-4.6-8-6.9C149.6,453.3,117,425.2,109,391
		c-7.6-31.7,2.3-64.1,12.9-98.3c2.8-9,5.5-18.4,8-27.8c13.6-50.5,11-101.5-6.9-148.9c4.8,0.2,9.6,0.5,14.2,0.5
		c13.3,0,26.4-0.9,39.1-3c10.8-1.6,21.1-4.4,31-6.9c7.8-2.1,15.2-3.9,22.5-5.3c7.4-1.4,14.2-2.1,20.4-2.1c12.4,0,22.7,2.8,31.2,8.5
		v10.3h36.3V108c8.5-5.7,18.6-8.5,31.2-8.5c6.2,0,13.1,0.7,20.4,2.1c7.4,1.4,14.7,3.2,22.5,5.3c9.9,2.5,20.2,5.1,31,6.9
		c12.6,2.1,25.7,3,39.1,3c4.8,0,9.4-0.2,14.2-0.5c-17.9,47.3-20.4,98.3-6.9,148.9c2.5,9.2,5.3,18.6,8,27.8
		C487.8,327.1,497.7,359.3,490.3,391.2z"/>
	<polygon points="299.2,230.2 329.2,291.1 396.5,300.9 347.8,348.3 359.3,415.3 299.2,383.6 239,415.3 250.5,348.3 201.9,300.9 
		269.1,291.1 	"/>
</g>
</svg>
