<?xml version="1.0" encoding="utf-8"?>
<!-- Generator: Adobe Illustrator 26.2.1, SVG Export Plug-In . SVG Version: 6.00 Build 0)  -->
<svg version="1.1" id="Vrstva_1" xmlns="http://www.w3.org/2000/svg" xmlns:xlink="http://www.w3.org/1999/xlink" x="0px" y="0px"
	 viewBox="0 0 600 600" style="enable-background:new 0 0 600 600;" xml:space="preserve">
<g>
	<path d="M486.6,260.5c-14.2-53.8-9.4-109.1,15.6-159c1.4-3-0.9-5.5-3.9-5.1c-24.1,3.2-48.5,3.4-72.4-0.2
		c-17.9-2.8-35.4-8.5-53.1-11.9c-25.3-4.8-51.5-3.7-71.4,14.2c-0.7,0.7-1.1,1.4-1.1,2.3h-0.9c0-0.7-0.2-1.6-1.1-2.3
		c-20-17.9-46.2-19.1-71.4-14.2c-17.9,3.4-35.1,9.2-53.1,11.9c-24.1,3.9-48.2,3.4-72.4,0.2c-3-0.5-5.3,2.3-3.9,5.1
		c24.8,49.9,29.9,105.2,15.6,159c-11.5,43.4-31.9,88.7-20.9,134.6c10.3,43.4,51.5,75.4,83.4,102.9c37,31.9,78.3,65,122.9,85.9
		c0.5,0.2,1.1,0.2,1.6,0.2c0.5,0,0.9,0,1.6-0.2c44.6-20.9,85.9-54,122.9-85.9c32.2-27.6,73.3-59.5,83.4-102.9
		C518.6,349.2,498.1,303.9,486.6,260.5z M490.3,391.2c-8,34.2-40.9,62-69.6,86.6c-2.8,2.3-5.5,4.6-8,6.9
		c-34.7,29.9-72.4,60.2-113,80.4c-40.7-20.2-78.3-50.5-113-80.4c-2.8-2.3-5.3-4.6-8-6.9C149.6,453.3,117,425.2,109,391
		c-7.6-31.7,2.3-64.1,12.9-98.3c2.8-9,5.5-18.4,8-27.8c13.6-50.5,11-101.5-6.9-148.9c4.8,0.2,9.6,0.5,14.2,0.5
		c13.3,0,26.4-0.9,39.1-3c10.8-1.6,21.1-4.4,31-6.9c7.8-2.1,15.2-3.9,22.5-5.3c7.4-1.4,14.2-2.1,20.4-2.1c12.4,0,22.7,2.8,31.2,8.5
		v10.3h36.3V108c8.5-5.7,18.6-8.5,31.2-8.5c6.2,0,13.1,0.7,20.4,2.1c7.4,1.4,14.7,3.2,22.5,5.3c9.9,2.5,20.2,5.1,31,6.9
		c12.6,2.1,25.7,3,39.1,3c4.8,0,9.4-0.2,14.2-0.5c-17.9,47.3-20.4,98.3-6.9,148.9c2.5,9.2,5.3,18.6,8,27.8
		C487.8,327.1,497.7,359.3,490.3,391.2z"/>
	<g>
		<path d="M266.1,461.9l-13.9,34.9l1.8,5l-14.8-5.9c-12.5-5.1-18-17.8-13.3-29.8c4.9-12.3,18.3-17.1,30.1-12.4l14.7,5.9L266.1,461.9
			z M256.1,454.2c-9.3-3.7-17.1,4.5-21.4,15.3c-4.5,11.4-4.5,22.2,4.9,26l3.4,1.4l16.4-41.3L256.1,454.2z"/>
		<path d="M191.1,440.5c3.7,2.9,8.2,6.1,12,1.7l8.9-10.1l0-5.3l11.6,10.2l-5.3,0.7l-14.7,16.7l1.1,4.1l-11.6-4.9l7.7-8.8
			c-6.8,5.2-11.2,5.9-17.2,0.4L191.1,440.5z"/>
		<path d="M174.5,417.4c-2.2-3.5-1.9-5.2-1.5-7c-0.8,1.9-2.2,6.4,0.5,10.6l2.6,4.1c-5.1,0.3-11-3.1-14.2-8
			c-3.1-4.9-3.9-10.9,1.4-14.3l16.8-10.7l1.5-5.1L188,397l-6.7,4.3c5.9-1.4,10.2,0.8,12.5,4.6c3.3,5.2,1.7,11.8-3.7,15.2
			C184.8,424.5,177.9,422.7,174.5,417.4z M176.1,404.6l-10.9,6.9c-2.8,1.8-3.6,3.5-2.5,5.2c1.7,2.7,5.7,2.3,9,1.1
			C171.2,416,170.6,410.5,176.1,404.6z M187.9,403.6c-2-3.1-6.1-2.5-9.1-0.6c-3.9,2.5-7.2,8.6-4.7,12.6c1.8,2.9,5.9,2.7,9,0.7
			C187.5,413.6,190.3,407.3,187.9,403.6z"/>
		<path d="M127.1,360.3l0.5-0.2l10.3,8l-5.9,11.6l-0.5,0.1l1.2-10.5L127.1,360.3z M141.7,367.1c-1.3-5.7,0.5-11.5,4.7-15.7l2.1,9.6
			c-3.5,3.5-5.1,7.2-4.5,9.9c0.8,3.5,4.8,4.3,8.8,3.3c9.1-2.1,20.3-11.6,18.8-18.3c-0.8-3.6-5.1-4.2-9.6-3.1l-1.3-5.7
			c6.6,1.2,11.9,6.2,13.3,12.7c2,8.9-3.7,17.8-12.5,19.8C152.5,381.7,143.7,376.1,141.7,367.1z"/>
		<path d="M133.4,332.2l-0.3,0.2l-7.3-15.3l5.3-2.4L133.4,332.2z M166.7,328.7l-22.3-1.3l-2.5,3.4l-3.2-12.2l28.5,1.6l4.2-3.3
			l-0.9,15.4L166.7,328.7z"/>
		<path d="M187.7,283.4l-29.3-17.2l-3.8,1.8l2.7-12.3l3.4,2c-1.1-3.3-1-6.7,1-10.1c3.7-6.3,13.1-7.6,21-3
			c7.9,4.6,11.3,13.5,7.6,19.8c-2,3.4-4.9,5.2-8.3,5.8l10,5.9l5.2-1l-7.8,13.4L187.7,283.4z M181.1,269.8c2.5-0.3,5-1.3,6.2-3.2
			c2.5-4.3-3.1-11.1-8.9-14.6c-5.9-3.4-14.6-5-17.1-0.7c-1.1,1.9-0.7,4.6,0.2,6.9L181.1,269.8z"/>
		<path d="M197.8,206.5c7.2-5.8,17.6-4.6,23.3,2.4c5.8,7.1,4.7,17.5-2.4,23.3c-7.1,5.8-17.5,4.6-23.3-2.5
			C189.6,222.8,190.6,212.3,197.8,206.5z M221,228.6c2.8-2.3,2-5.9-0.9-9.4c-6.8-8.4-20.2-12.5-24.7-8.9c-2.8,2.3-2,5.9,0.9,9.4
			C203.1,228.1,216.5,232.2,221,228.6z"/>
		<path d="M252,208l4.8,2.3l-14.3,6l1.7-5l-13.4-31.9l-4.1-0.8l9.5-8.3L252,208z"/>
		<path d="M271.7,202.2l-4-21.9l-3.9-1.7l11.1-6l5.1,28.1l4.2,3.3l-15.2,2.8L271.7,202.2z M264.5,166.9c-0.5-2.6,1.3-5.1,3.9-5.6
			s5.1,1.3,5.6,3.9c0.5,2.6-1.3,5.1-3.9,5.6S265,169.5,264.5,166.9z"/>
		<path d="M316.2,171.3c5.8,0.6,10.8,4.1,13.4,9.4l-9.8-1c-2.2-4.4-5.2-7.1-8-7.4c-3.6-0.3-5.5,3.2-5.9,7.3
			c-0.9,9.3,4.6,22.9,11.5,23.6c3.7,0.4,5.6-3.5,6-8.2l5.8,0.6c-3.2,5.9-9.6,9.3-16.2,8.7c-9.1-0.9-15.8-9.1-14.9-18.1
			C299,177.1,307.1,170.4,316.2,171.3z"/>
		<path d="M347.2,194.2c4-8.3,13.9-11.8,22.2-7.9c5.1,2.4,8.6,7.3,9.4,13l-11.4-5.4c7.2,5.1,10.2,11.7,7.1,18
			c-2.6,5.6-10.2,8.7-19.1,4.5C346.8,212.2,343.3,202.5,347.2,194.2z M361.9,215.3c4.8,2.3,10.2-0.2,12.3-4.6
			c3.2-6.7-2.8-14.8-11.3-18.8l-5.3-2.5C352.3,198.3,353.5,211.2,361.9,215.3z M357.9,188.8l12.2,5.8c0.5-3.5-1-7.2-4-8.6
			C362.7,184.4,360,185.6,357.9,188.8z"/>
		<path d="M409.3,213.7l-21.1,24c-5.7,6.1-12.9,5.1-19.6-0.8c-2.2-1.9-3.9-4-5-5.9l9,0.5c-1.1,4.2-1.3,6.1-0.1,7.1
			c2.1,1.8,4-0.4,6.1-2.7l20.4-23.2l-1.1-4L409.3,213.7z M414.7,208.7c-1.8,2-4.8,2.2-6.8,0.5c-2-1.8-2.2-4.8-0.4-6.8
			s4.8-2.2,6.8-0.5C416.3,203.6,416.5,206.7,414.7,208.7z"/>
		<path d="M419,272.3l-1.4,5.1l-8.4-13l5.2,0.8l16.3-10.5c2.8-1.8,3.6-5.4,2-7.8c-0.9-1.5-2.6-2.6-4.9-3l-19.1,12.3l-1.4,5.1
			l-8.4-13l5.2,0.8l18.3-11.8l0.1-4.2l10.2,7.7l-4.2,2.7c4.6,1,8.1,3,10,5.9c2.8,4.3,1.2,9.5-3.2,12.3L419,272.3z"/>
		<path d="M426,291l21.4-6.2l1.3-4l7.1,10.4l-27.4,8l-2.8,4.5l-4.3-14.9L426,291z M456.2,276.6l0.2-0.3l12,11.9l-4.2,4L456.2,276.6z
			"/>
		<path d="M434.2,366.3c-5.6-0.9-8.4-6.7-7.5-12.7l1.9-12.2l10.7,0.6l-11.5,9.3c-0.2,0.8-0.4,1.5-0.6,2.4c-0.6,3.7,0.4,6.9,2.7,7.3
			c3.5,0.6,7.2-5.4,10.2-9.2l2.1-2.8c2.9-3.7,6.5-5.9,10.3-5.3c5.1,0.8,7.6,6,6.8,11.4l-1.8,11.3l-10.2-0.3l10.7-8.3
			c0.2-0.6,0.5-1.8,0.7-2.8c0.4-2.5,0.3-6-2.1-6.4c-3-0.5-5.4,2.6-8.7,7.1l-2.7,3.6C442.1,363.5,438.1,366.9,434.2,366.3z"/>
		<path d="M456.7,406.7l-14.4-7.5c1.3,3.2,1.3,6.7-0.5,10.1c-3.3,6.5-12.7,8.3-20.8,4.1c-8.1-4.2-12-12.9-8.7-19.3
			c1.8-3.4,4.7-5.7,8.7-6.4l-1.9-6l1.6-3.1l34.2,17.7l3.7-2L456.7,406.7z M415.2,391.8c-2.3,4.4,3.6,11,9.7,14.1
			c6.1,3.1,14.8,4.2,17.1-0.2c1-2,0.5-4.6-0.6-6.9l-20.2-10.5C418.7,388.8,416.2,389.9,415.2,391.8z"/>
		<path d="M407.8,452.3c-6.9,6.2-17.3,5.5-23.4-1.2c-6.1-6.8-5.6-17.2,1.2-23.4c6.8-6.1,17.2-5.5,23.4,1.3
			C415.1,435.7,414.6,446.2,407.8,452.3z M383.5,431.6c-2.7,2.4-1.7,6,1.4,9.4c7.3,8.1,20.8,11.4,25.1,7.6c2.7-2.4,1.7-6-1.4-9.4
			C401.3,431.1,387.8,427.7,383.5,431.6z"/>
		<path d="M352.4,476.2c4.2-2.1,8.9-4.9,6.6-10.2l-5.5-12.3l-4.8-2.2l14.1-6.3l-1.6,5l9,20.3l4.2,0.7l-9.3,8.5l-4.7-10.7
			c1.9,8.3,0.7,12.6-6.8,15.8L352.4,476.2z"/>
		<path d="M297.1,480c0-2.1,1.6-3.7,3.6-3.8c2,0,3.7,1.6,3.8,3.6c0,2-1.6,3.7-3.6,3.7C298.8,483.7,297.1,482.1,297.1,480z"/>
	</g>
	<polygon points="299.2,230.2 329.2,291.1 396.5,300.9 347.8,348.3 359.3,415.3 299.2,383.6 239,415.3 250.5,348.3 201.9,300.9 
		269.1,291.1 	"/>
</g>
</svg>
