<?xml version="1.0" standalone="no"?>
<!DOCTYPE svg PUBLIC "-//W3C//DTD SVG 20010904//EN"
 "http://www.w3.org/TR/2001/REC-SVG-20010904/DTD/svg10.dtd">
<svg version="1.0" xmlns="http://www.w3.org/2000/svg"
 width="350.000000pt" height="350.000000pt" viewBox="0 0 350.000000 350.000000"
 preserveAspectRatio="xMidYMid meet">
<metadata>
Created by potrace 1.14, written by Peter Selinger 2001-2017
</metadata>
<g transform="translate(0.000000,350.000000) scale(0.100000,-0.100000)"
fill="#000000" stroke="none">
<path d="M1635 3124 c-127 -17 -181 -27 -190 -34 -5 -5 -39 -16 -75 -25 -35
-9 -93 -30 -127 -46 -34 -16 -67 -29 -73 -29 -5 0 -10 -4 -10 -9 0 -4 -20 -16
-45 -25 -25 -10 -45 -21 -45 -25 0 -4 -16 -16 -35 -27 -19 -10 -35 -21 -35
-24 0 -3 -15 -14 -32 -24 -18 -11 -87 -73 -153 -140 -114 -114 -200 -226 -224
-288 -6 -16 -15 -28 -20 -28 -5 0 -17 -24 -27 -52 -9 -29 -21 -58 -26 -65 -11
-14 -50 -113 -51 -130 0 -7 -3 -13 -7 -13 -4 0 -15 -34 -25 -75 l-19 -75 -93
0 c-113 0 -182 -14 -239 -49 l-43 -26 -1 -106 c0 -93 2 -108 20 -124 11 -10
20 -23 20 -30 0 -7 17 -20 38 -31 20 -10 39 -22 42 -26 3 -4 42 -16 85 -26 44
-11 103 -27 130 -36 l51 -17 12 -76 c6 -42 18 -80 24 -85 7 -4 9 -8 5 -8 -5 0
-1 -10 7 -22 9 -12 16 -30 16 -40 0 -9 7 -24 16 -32 8 -9 13 -16 9 -16 -3 0 1
-10 8 -22 8 -13 20 -43 28 -68 7 -25 16 -47 19 -50 3 -3 14 -23 25 -45 11 -22
26 -44 32 -48 7 -4 13 -13 13 -19 0 -18 81 -110 197 -223 172 -168 210 -203
232 -214 11 -6 25 -17 33 -24 7 -7 36 -22 63 -32 28 -10 59 -24 70 -31 11 -6
54 -20 95 -29 41 -10 80 -21 85 -25 21 -16 231 -40 352 -40 128 0 272 20 328
45 17 7 50 19 75 25 25 7 59 20 75 30 17 10 47 23 68 30 20 6 37 15 37 20 0 5
20 16 45 26 25 9 45 20 45 24 0 3 16 14 35 23 19 9 35 21 35 26 0 5 8 12 18
15 9 3 31 17 47 31 104 89 235 212 235 221 0 3 14 20 32 37 46 47 156 217 140
217 -4 0 -2 4 4 8 13 8 48 82 46 95 -1 4 2 7 7 7 4 0 16 21 26 48 10 26 24 56
31 67 15 23 39 177 31 204 -4 17 3 18 87 17 76 -1 99 3 141 23 28 13 62 37 77
55 26 29 27 37 27 131 0 94 -1 102 -27 136 -15 20 -41 48 -58 62 -30 25 -129
57 -177 57 -14 0 -29 5 -32 10 -3 6 -15 10 -25 10 -14 0 -21 12 -31 55 -7 30
-16 55 -20 55 -4 0 -15 25 -24 55 -10 30 -22 55 -27 55 -5 0 -6 5 -3 10 3 6 2
10 -3 10 -5 0 -15 18 -22 40 -7 22 -17 40 -21 40 -4 0 -16 18 -28 41 -12 22
-30 50 -41 61 -11 12 -20 27 -20 34 0 6 -7 14 -15 18 -8 3 -15 11 -15 17 0 38
-204 241 -315 315 -27 18 -57 39 -66 47 -9 8 -37 22 -63 32 -25 10 -46 21 -46
25 0 4 -12 11 -27 15 -16 3 -51 17 -79 30 -28 13 -82 32 -120 41 -38 10 -71
20 -74 24 -16 21 -352 47 -445 34z m410 -535 c39 -6 74 -15 79 -20 6 -5 18 -9
27 -9 20 0 149 -66 164 -84 6 -6 20 -18 31 -27 12 -8 65 -68 118 -134 117
-147 107 -134 130 -175 11 -19 24 -38 30 -42 6 -4 -29 -8 -79 -8 -159 -1 -242
-36 -265 -113 -7 -23 -17 -52 -23 -64 -7 -16 -7 -30 0 -45 6 -13 19 -47 29
-75 10 -29 20 -53 24 -53 3 0 17 -11 32 -25 21 -19 48 -28 130 -42 57 -9 105
-20 108 -24 3 -4 16 -9 30 -10 21 -3 24 -8 22 -34 -2 -16 -8 -31 -13 -33 -5
-2 -9 -13 -9 -25 0 -26 -75 -177 -96 -193 -8 -6 -14 -14 -14 -18 0 -23 -160
-194 -244 -261 -21 -16 -49 -40 -64 -52 -15 -13 -30 -23 -34 -23 -4 0 -13 -6
-20 -14 -8 -7 -33 -23 -55 -35 -23 -11 -44 -25 -47 -29 -3 -5 -27 -15 -53 -22
-27 -7 -53 -17 -59 -21 -24 -19 -157 -29 -237 -19 -44 5 -85 13 -91 18 -6 4
-37 16 -68 27 -32 10 -58 21 -58 25 0 4 -18 12 -40 19 -21 6 -45 17 -52 24 -7
7 -32 21 -55 31 -24 11 -43 22 -43 25 0 4 -15 15 -32 26 -49 28 -182 165 -197
203 -8 17 -17 32 -21 32 -4 0 -15 19 -25 42 -9 24 -21 46 -27 49 -6 4 -12 36
-15 71 l-5 65 81 6 c133 10 181 60 181 186 0 85 -28 125 -123 179 -35 20 -91
38 -147 50 -84 17 -91 20 -76 34 8 9 23 35 32 59 10 24 21 46 24 49 4 3 15 23
26 45 10 22 26 49 36 59 10 11 18 26 18 33 0 7 9 18 20 25 11 7 20 18 20 24 0
6 29 38 65 70 93 85 117 105 143 117 12 6 22 14 22 18 0 4 20 15 45 25 25 9
45 20 45 25 0 4 26 16 58 26 31 9 59 21 62 24 5 6 80 22 155 33 50 7 325 -3
400 -15z"/>
</g>
</svg>
